<svg xmlns="http://www.w3.org/2000/svg" xmlns:xlink="http://www.w3.org/1999/xlink" width="126" zoomAndPan="magnify" viewBox="0 0 94.5 94.499998" height="126" preserveAspectRatio="xMidYMid meet" version="1.0"><defs><clipPath id="a1c2e69636"><path d="M 0 0 L 94.003906 0 L 94.003906 94.003906 L 0 94.003906 Z M 0 0 " clip-rule="nonzero"/></clipPath></defs><g clip-path="url(#a1c2e69636)"><path fill="#ffffff" d="M 0 0 L 94.003906 0 L 94.003906 94.003906 L 0 94.003906 Z M 0 0 " fill-opacity="1" fill-rule="nonzero"/><path fill="#ffffff" d="M 0 0 L 94.003906 0 L 94.003906 94.003906 L 0 94.003906 Z M 0 0 " fill-opacity="1" fill-rule="nonzero"/><path fill="#172b4e" d="M 0 0 L 94.003906 0 L 94.003906 94.003906 L 0 94.003906 Z M 0 0 " fill-opacity="1" fill-rule="evenodd"/></g><path fill="#ffffff" d="M 31.777344 41.257812 C 31.777344 36.5625 40.164062 34.46875 40.164062 30.503906 L 40.164062 29.226562 C 40.164062 24.613281 33.542969 13.914062 29.773438 13.914062 L 29.042969 13.914062 C 25.699219 13.914062 21.042969 19.007812 19.6875 21.328125 C 17.476562 25.09375 15.734375 28.1875 15.734375 34.148438 L 15.734375 35.058594 C 15.734375 40.355469 19.074219 48.332031 21.167969 51.6875 C 22.679688 54.109375 24.265625 55.863281 25.765625 58.027344 C 27.355469 60.316406 29.074219 61.855469 30.820312 63.910156 C 34.1875 67.875 37.753906 71.792969 42.351562 74.441406 C 46.304688 76.71875 52.425781 80.089844 58.578125 80.089844 C 62.882812 80.089844 67.195312 78.355469 69.992188 76.738281 C 71.585938 75.820312 77.171875 71.09375 77.171875 69.152344 L 77.171875 68.238281 C 77.171875 64.867188 73.386719 62.554688 71.472656 60.8125 C 69.914062 59.398438 65.777344 56.023438 63.136719 56.023438 L 62.769531 56.023438 C 57.015625 56.023438 55.679688 62.769531 51.101562 62.769531 L 50.007812 62.769531 C 45.457031 62.769531 31.777344 47.261719 31.777344 41.625 Z M 47.273438 38.34375 L 48.1875 38.34375 C 54.679688 38.34375 60.21875 44.035156 60.21875 50.554688 L 66.234375 50.554688 C 66.234375 40.777344 57.769531 32.324219 48.003906 32.324219 L 47.273438 32.324219 Z M 46.910156 26.128906 C 54.734375 26.128906 60.945312 29.132812 64.914062 33.101562 C 68.578125 36.765625 72.433594 43.21875 72.433594 50.375 L 78.265625 50.375 L 78.265625 48.367188 C 78.265625 45.507812 76.121094 39.070312 75.109375 36.941406 C 73.636719 33.839844 71.414062 30.792969 69.015625 28.632812 C 66.460938 26.328125 63.6875 24.417969 60.277344 22.96875 C 57.832031 21.933594 51.988281 20.113281 48.734375 20.113281 L 46.910156 20.113281 Z M 46.910156 26.128906 " fill-opacity="1" fill-rule="evenodd"/></svg>