<svg xmlns="http://www.w3.org/2000/svg" xmlns:xlink="http://www.w3.org/1999/xlink" width="126" zoomAndPan="magnify" viewBox="0 0 94.5 94.499998" height="126" preserveAspectRatio="xMidYMid meet" version="1.0"><defs><clipPath id="c542de39b4"><path d="M 0 0 L 94.003906 0 L 94.003906 94.003906 L 0 94.003906 Z M 0 0 " clip-rule="nonzero"/></clipPath></defs><g clip-path="url(#c542de39b4)"><path fill="#ffffff" d="M 0 0 L 94.003906 0 L 94.003906 94.003906 L 0 94.003906 Z M 0 0 " fill-opacity="1" fill-rule="nonzero"/><path fill="#ffffff" d="M 0 0 L 94.003906 0 L 94.003906 94.003906 L 0 94.003906 Z M 0 0 " fill-opacity="1" fill-rule="nonzero"/><path fill="#172b4e" d="M 0 0 L 94.003906 0 L 94.003906 94.003906 L 0 94.003906 Z M 0 0 " fill-opacity="1" fill-rule="evenodd"/></g><path fill="#ffffff" d="M 37.964844 50.414062 C 38.695312 50.898438 40.855469 53.261719 41.65625 54.066406 C 42.703125 55.121094 44.894531 56.097656 47 56.097656 L 47.253906 56.097656 C 49.277344 56.097656 51.460938 55.132812 52.472656 54.109375 C 53.289062 53.28125 55.539062 51.257812 56.058594 50.480469 L 73.679688 68.492188 L 20.292969 68.464844 Z M 77.070312 29.402344 L 77.101562 64.902344 L 59.539062 47.003906 Z M 16.898438 64.902344 L 16.816406 29.015625 L 16.984375 29.097656 L 17.066406 29.183594 L 17.152344 29.265625 L 17.234375 29.351562 L 17.320312 29.433594 L 17.402344 29.519531 L 17.488281 29.601562 L 17.570312 29.6875 L 18.15625 30.273438 L 18.242188 30.355469 L 18.324219 30.441406 L 18.410156 30.523438 L 18.492188 30.609375 L 18.578125 30.691406 L 18.660156 30.777344 L 19.414062 31.53125 L 19.5 31.613281 L 19.582031 31.699219 L 19.667969 31.78125 L 19.75 31.867188 L 19.835938 31.949219 L 19.917969 32.035156 L 20.671875 32.789062 L 20.757812 32.871094 L 20.839844 32.957031 L 20.925781 33.039062 L 21.007812 33.125 L 21.09375 33.207031 L 21.175781 33.292969 L 21.679688 33.796875 L 34.523438 46.863281 Z M 74 25.578125 L 73.414062 26.164062 L 73.332031 26.25 L 73.246094 26.332031 L 73.164062 26.417969 L 73.078125 26.5 L 72.996094 26.585938 L 72.910156 26.667969 L 72.15625 27.421875 L 72.074219 27.507812 L 71.988281 27.589844 L 71.90625 27.675781 L 71.820312 27.757812 L 71.738281 27.84375 L 71.652344 27.925781 L 70.898438 28.679688 L 70.816406 28.765625 L 70.730469 28.847656 L 70.648438 28.933594 L 70.5625 29.015625 L 69.640625 29.9375 L 69.558594 30.023438 L 69.472656 30.105469 L 69.390625 30.191406 L 69.304688 30.273438 L 68.550781 31.027344 L 68.46875 31.113281 L 68.382812 31.195312 L 68.300781 31.28125 L 68.214844 31.363281 L 68.132812 31.449219 L 68.046875 31.53125 L 67.292969 32.285156 L 67.210938 32.371094 L 67.125 32.453125 L 67.042969 32.539062 L 66.957031 32.621094 L 66.875 32.707031 L 66.789062 32.789062 L 66.035156 33.542969 L 65.953125 33.628906 L 65.867188 33.710938 L 65.785156 33.796875 L 65.699219 33.878906 L 64.777344 34.800781 L 64.695312 34.886719 L 64.609375 34.96875 L 64.527344 35.054688 L 64.441406 35.136719 L 64.105469 35.472656 C 63.550781 36.304688 60.953125 38.667969 60.0625 39.558594 C 58.683594 40.933594 57.375 42.257812 55.992188 43.625 C 54.628906 44.980469 53.339844 46.363281 51.96875 47.734375 C 50.96875 48.738281 49.0625 51.234375 47.335938 51.234375 L 47.085938 51.234375 C 45.21875 51.234375 44.117188 49.566406 43.125 48.574219 C 42.011719 47.464844 40.964844 46.414062 39.851562 45.304688 C 37.652344 43.101562 35.554688 40.921875 33.355469 38.722656 C 31.140625 36.507812 29.03125 34.3125 26.8125 32.097656 C 25.707031 30.988281 24.6875 29.882812 23.585938 28.785156 C 22.851562 28.054688 20.800781 26.183594 20.335938 25.492188 L 74.085938 25.410156 Z M 12.035156 73.371094 L 81.964844 73.371094 L 81.964844 20.628906 L 12.035156 20.628906 Z M 12.035156 73.371094 " fill-opacity="1" fill-rule="evenodd"/></svg>