<svg xmlns="http://www.w3.org/2000/svg" xmlns:xlink="http://www.w3.org/1999/xlink" width="126" zoomAndPan="magnify" viewBox="0 0 94.5 94.499998" height="126" preserveAspectRatio="xMidYMid meet" version="1.0"><defs><clipPath id="dfdc93bed8"><path d="M 0 0 L 94.003906 0 L 94.003906 94.003906 L 0 94.003906 Z M 0 0 " clip-rule="nonzero"/></clipPath></defs><g clip-path="url(#dfdc93bed8)"><path fill="#ffffff" d="M 0 0 L 94.003906 0 L 94.003906 94.003906 L 0 94.003906 Z M 0 0 " fill-opacity="1" fill-rule="nonzero"/><path fill="#ffffff" d="M 0 0 L 94.003906 0 L 94.003906 94.003906 L 0 94.003906 Z M 0 0 " fill-opacity="1" fill-rule="nonzero"/><path fill="#172b4e" d="M 0 0 L 94.003906 0 L 94.003906 94.003906 L 0 94.003906 Z M 0 0 " fill-opacity="1" fill-rule="evenodd"/></g><path fill="#ffffff" d="M 47 11.78125 C 61.039062 11.78125 72.421875 23.164062 72.421875 37.203125 C 72.421875 42.125 71.019531 46.71875 68.597656 50.609375 L 68.574219 50.644531 C 61.863281 61.386719 54.152344 71.753906 47 82.21875 C 39.847656 71.753906 32.140625 61.390625 25.429688 50.648438 L 25.40625 50.609375 C 22.984375 46.71875 21.582031 42.125 21.582031 37.203125 C 21.582031 23.164062 32.964844 11.78125 47 11.78125 Z M 47 25.871094 C 53.257812 25.871094 58.332031 30.945312 58.332031 37.203125 C 58.332031 43.457031 53.257812 48.53125 47 48.53125 C 40.746094 48.53125 35.671875 43.457031 35.671875 37.203125 C 35.671875 30.945312 40.746094 25.871094 47 25.871094 Z M 47 25.871094 " fill-opacity="1" fill-rule="evenodd"/></svg>