<svg xmlns="http://www.w3.org/2000/svg" xmlns:xlink="http://www.w3.org/1999/xlink" width="126" zoomAndPan="magnify" viewBox="0 0 94.5 94.499998" height="126" preserveAspectRatio="xMidYMid meet" version="1.0"><defs><clipPath id="65018cb2cd"><path d="M 0 0 L 94.003906 0 L 94.003906 94.003906 L 0 94.003906 Z M 0 0 " clip-rule="nonzero"/></clipPath></defs><g clip-path="url(#65018cb2cd)"><path fill="#ffffff" d="M 0 0 L 94.003906 0 L 94.003906 94.003906 L 0 94.003906 Z M 0 0 " fill-opacity="1" fill-rule="nonzero"/><path fill="#ffffff" d="M 0 0 L 94.003906 0 L 94.003906 94.003906 L 0 94.003906 Z M 0 0 " fill-opacity="1" fill-rule="nonzero"/><path fill="#172b4e" d="M 0 0 L 94.003906 0 L 94.003906 94.003906 L 0 94.003906 Z M 0 0 " fill-opacity="1" fill-rule="evenodd"/></g><path fill="#ffffff" d="M 54.304688 77.574219 C 54.453125 77.011719 56.292969 75.363281 56.851562 74.515625 C 57.367188 73.734375 58.585938 71.929688 59.1875 71.246094 C 60.441406 69.824219 62.042969 65.910156 62.964844 63.984375 L 70.488281 67.796875 C 69.015625 70.019531 65.695312 72.324219 63.402344 73.765625 C 61.890625 74.71875 56.324219 77.527344 54.304688 77.574219 Z M 38.847656 76.554688 L 39.90625 77.535156 L 39.019531 77.402344 C 37.71875 76.78125 35.871094 76.460938 34.375 75.761719 C 32.789062 75.019531 31.636719 74.554688 30.289062 73.5625 C 28.125 71.972656 24.996094 70.027344 23.5625 67.890625 L 30.96875 63.859375 C 32.191406 66.390625 33.085938 68.5625 34.433594 70.78125 C 35.667969 72.816406 37.640625 74.75 38.847656 76.554688 Z M 34.261719 62.964844 C 34.261719 62.492188 38.601562 61.699219 39.492188 61.570312 C 41.25 61.320312 43.175781 60.929688 45.304688 60.929688 L 45.304688 78.082031 C 44.21875 77.355469 39.777344 72.527344 38.984375 71.324219 C 38.238281 70.191406 34.261719 64.078125 34.261719 62.964844 Z M 48.699219 60.929688 L 50.398438 60.929688 C 51.484375 60.929688 51.691406 61.269531 52.777344 61.269531 L 52.945312 61.269531 C 53.628906 61.269531 59.253906 62.5625 59.738281 62.796875 C 58.769531 66.964844 51.824219 75.988281 48.699219 78.082031 Z M 48.699219 48.699219 L 62.796875 48.699219 L 62.796875 49.890625 C 62.796875 52.226562 61.660156 58.042969 60.929688 59.570312 L 57.328125 58.671875 L 49.90625 57.414062 L 48.699219 57.53125 Z M 32.046875 55.671875 C 31.738281 53.359375 31.207031 51.714844 31.207031 48.699219 L 45.304688 48.699219 L 45.304688 57.53125 C 43.839844 57.53125 41.246094 57.671875 39.929688 57.933594 C 38.582031 58.199219 36.515625 58.890625 35.28125 58.890625 C 34.570312 59.367188 33.128906 60.082031 32.832031 58.792969 C 32.523438 57.449219 32.273438 57.375 32.046875 55.671875 Z M 27.808594 48.699219 C 27.808594 50.894531 28.117188 52.207031 28.304688 53.980469 C 28.480469 55.625 29.167969 57.902344 29.167969 58.890625 L 29.867188 60.921875 C 28.125 60.96875 23.0625 64.359375 21.527344 65.175781 C 20.464844 64.464844 18.125 59.597656 17.53125 57.957031 C 16.558594 55.273438 15.75 52.261719 15.75 48.699219 Z M 66.191406 48.699219 L 78.421875 48.699219 C 78.351562 51.808594 77.261719 55.375 76.484375 57.972656 C 76.035156 59.464844 73.421875 64.542969 72.476562 65.175781 C 71.289062 64.378906 65.582031 60.960938 64.15625 60.929688 C 64.851562 57.945312 66.191406 53.875 66.191406 50.230469 Z M 51.757812 36.132812 C 53.679688 36.132812 54.964844 35.925781 56.621094 35.558594 C 57.734375 35.3125 59.96875 34.511719 60.929688 34.433594 C 61.511719 36.941406 62.796875 40.984375 62.796875 43.945312 L 62.796875 45.304688 L 48.699219 45.304688 L 48.699219 36.472656 L 51.078125 36.472656 C 51.457031 36.472656 51.449219 36.335938 51.757812 36.132812 Z M 31.207031 44.792969 C 31.207031 40.773438 32.316406 37.691406 33.074219 34.433594 L 36.667969 35.351562 L 44.773438 36.617188 L 45.304688 36.472656 L 45.304688 45.304688 L 31.207031 45.304688 Z M 64.15625 33.414062 C 64.597656 32.753906 67.609375 31.738281 68.539062 31.175781 C 69.304688 30.710938 71.980469 28.984375 72.648438 28.828125 C 73.179688 29.832031 74.0625 30.988281 74.683594 32.058594 C 75.300781 33.121094 75.769531 34.351562 76.234375 35.601562 C 77.027344 37.730469 78.25 41.050781 78.25 43.945312 L 78.25 45.304688 L 66.191406 45.304688 L 66.191406 44.113281 C 66.191406 39.988281 64.941406 36.785156 64.15625 33.414062 Z M 15.582031 45.304688 C 15.582031 42.4375 16.796875 38.097656 17.621094 35.964844 C 18.105469 34.714844 20.675781 28.828125 21.695312 28.828125 C 21.738281 28.828125 25.152344 30.984375 25.714844 31.265625 C 26.570312 31.695312 29.464844 32.84375 29.847656 33.414062 C 28.933594 37.34375 27.808594 40.226562 27.808594 45.304688 Z M 48.699219 16.261719 C 50.433594 17.421875 53.519531 21.15625 54.878906 22.988281 C 55.691406 24.085938 59.570312 29.808594 59.570312 31.035156 C 59.570312 31.800781 51.023438 33.074219 49.378906 33.074219 L 48.699219 33.074219 Z M 34.433594 31.207031 C 35.195312 27.941406 42.679688 17.132812 45.304688 16.429688 L 45.304688 33.074219 C 42.480469 33.074219 36.21875 32.0625 34.433594 31.207031 Z M 62.796875 30.019531 C 62.382812 28.246094 59.871094 24.183594 58.890625 22.714844 C 58.242188 21.746094 57.316406 20.324219 56.554688 19.445312 C 55.90625 18.703125 54.402344 17.085938 53.964844 16.429688 C 57.976562 16.429688 70.054688 23.679688 70.269531 26.28125 C 70.007812 26.351562 67.207031 28.019531 66.699219 28.3125 C 65.957031 28.738281 63.65625 29.816406 62.796875 30.019531 Z M 23.5625 26.113281 C 25.738281 22.863281 34.980469 16.851562 40.039062 16.429688 C 39.632812 17.035156 39.09375 17.359375 38.644531 17.925781 C 38.234375 18.449219 37.988281 19.035156 37.535156 19.53125 C 36.464844 20.707031 36.011719 21.589844 35.070312 22.671875 C 34.378906 23.464844 31.472656 28.875 31.207031 30.019531 L 31.113281 30.195312 Z M 12.183594 47.171875 C 12.183594 66.261719 27.890625 81.820312 47 81.820312 L 47.339844 81.820312 C 66.28125 81.820312 81.816406 66.03125 81.816406 47 C 81.816406 27.890625 66.273438 12.183594 47.171875 12.183594 L 46.832031 12.183594 C 27.636719 12.183594 12.183594 27.917969 12.183594 47.171875 Z M 12.183594 47.171875 " fill-opacity="1" fill-rule="evenodd"/></svg>